<svg width="16" height="16" viewBox="0 0 16 16" fill="none" xmlns="http://www.w3.org/2000/svg">
<path d="M8 0C3.58 0 0 3.58 0 8C0 11.54 2.29 14.53 5.47 15.59C5.87 15.66 6.02 15.38 6.02 15.14C6.02 14.92 6.01 14.39 6.01 13.72C4 14.09 3.48 13.23 3.32 12.78C3.23 12.55 2.84 11.84 2.5 11.62C2.22 11.44 1.82 11.07 2.49 11.06C3.12 11.05 3.57 11.67 3.72 11.95C4.44 13.15 5.59 12.81 6.05 12.56C6.12 12.06 6.33 11.71 6.56 11.5C4.78 11.29 2.92 10.61 2.92 7.56C2.92 6.71 3.23 5.99 3.74 5.43C3.66 5.22 3.38 4.42 3.82 3.31C3.82 3.31 4.49 3.06 6.02 4.06C6.66 3.88 7.34 3.79 8.02 3.79C8.7 3.79 9.38 3.88 10.02 4.07C11.55 3.05 12.22 3.31 12.22 3.31C12.66 4.42 12.38 5.22 12.3 5.43C12.81 5.99 13.12 6.7 13.12 7.56C13.12 10.62 11.25 11.29 9.47 11.5C9.76 11.78 10.01 12.33 10.01 13.17C10.01 14.39 10 15.36 10 15.53C10 15.77 10.15 16.06 10.55 15.99C13.71 14.53 16 11.53 16 8C16 3.58 12.42 0 8 0Z" fill="white"/>
</svg>
